<svg width="26" height="26" viewBox="0 0 26 26" fill="none" xmlns="http://www.w3.org/2000/svg">
<path fill-rule="evenodd" clip-rule="evenodd" d="M7.58342 3.16675C5.14416 3.16675 3.16675 5.14416 3.16675 7.58342V18.4167C3.16675 20.856 5.14416 22.8334 7.58342 22.8334H18.4167C20.856 22.8334 22.8334 20.856 22.8334 18.4167V7.58342C22.8334 5.14416 20.856 3.16675 18.4167 3.16675H7.58342ZM1.16675 7.58342C1.16675 4.03959 4.03959 1.16675 7.58342 1.16675H18.4167C21.9606 1.16675 24.8334 4.03959 24.8334 7.58342V18.4167C24.8334 21.9606 21.9606 24.8334 18.4167 24.8334H7.58342C4.03959 24.8334 1.16675 21.9606 1.16675 18.4167V7.58342ZM13.5359 9.65593C12.8424 9.55309 12.1341 9.67155 11.5117 9.99447C10.8894 10.3174 10.3847 10.8283 10.0695 11.4546C9.75429 12.0808 9.64458 12.7906 9.75596 13.4828C9.86735 14.175 10.1942 14.8145 10.6899 15.3102C11.1857 15.806 11.8252 16.1328 12.5174 16.2442C13.2096 16.3556 13.9193 16.2459 14.5456 15.9307C15.1719 15.6154 15.6828 15.1108 16.0057 14.4884C16.3286 13.8661 16.4471 13.1578 16.3442 12.4643C16.2393 11.7568 15.9097 11.1019 15.404 10.5962C14.8983 10.0905 14.2433 9.76084 13.5359 9.65593ZM10.5906 8.21922C11.5863 7.70256 12.7196 7.51302 13.8293 7.67757C14.9612 7.84541 16.0091 8.37285 16.8182 9.18198C17.6273 9.9911 18.1548 11.039 18.3226 12.1709C18.4872 13.2806 18.2976 14.4139 17.781 15.4096C17.2643 16.4053 16.4468 17.2128 15.4448 17.7171C14.4427 18.2215 13.3072 18.397 12.1997 18.2188C11.0921 18.0406 10.069 17.5177 9.27573 16.7244C8.4825 15.9312 7.95958 14.9081 7.78136 13.8005C7.60314 12.693 7.77869 11.5574 8.28304 10.5554C8.78739 9.55337 9.59486 8.73589 10.5906 8.21922ZM18.9583 6.04175C18.406 6.04175 17.9583 6.48946 17.9583 7.04175C17.9583 7.59403 18.406 8.04175 18.9583 8.04175H18.9683C19.5205 8.04175 19.9683 7.59403 19.9683 7.04175C19.9683 6.48946 19.5205 6.04175 18.9683 6.04175H18.9583Z" fill="#9CA0AA"/>
</svg>
