<svg width="29" height="21" viewBox="0 0 29 21" fill="none" xmlns="http://www.w3.org/2000/svg">
<path fill-rule="evenodd" clip-rule="evenodd" d="M28.3581 3.36733H26.8387C26.443 3.36733 25.4078 3.79349 25.4078 4.15629V17.331C25.4078 17.6947 26.443 17.9929 26.8387 17.9929H28.3581V20.918H18.5235V17.9929H20.4909V4.34189H20.1485L15.4143 20.918H11.749L7.07601 4.34189H6.72208V17.9929H8.68863V20.918H0.821289V17.9929H1.91244C2.34081 17.9929 2.7879 17.6947 2.7879 17.331V4.15629C2.7879 3.79344 2.34086 3.36733 1.91244 3.36733H0.821289V0.441895H11.0171L14.3462 12.1424H14.4358L17.7977 0.441895H28.3581V3.36733Z" fill="#9CA0AA"/>
</svg>
